Coordinates
version=1
nRows=7
nColumns=40
inDegrees=yes

Units are S.I. units (second, meters, Newtons, ...)
If the header above contains a line with 'inDegrees', this indicates whether rotational values are in degrees (yes) or radians (no).

endheader
time	pelvis_tilt	pelvis_list	pelvis_rotation	pelvis_tx	pelvis_ty	pelvis_tz	hip_flexion_r	hip_adduction_r	hip_rotation_r	knee_angle_r	knee_angle_r_beta	ankle_angle_r	subtalar_angle_r	mtp_angle_r	hip_flexion_l	hip_adduction_l	hip_rotation_l	knee_angle_l	knee_angle_l_beta	ankle_angle_l	subtalar_angle_l	mtp_angle_l	lumbar_extension	lumbar_bending	lumbar_rotation	arm_flex_r	arm_add_r	arm_rot_r	elbow_flex_r	pro_sup_r	wrist_flex_r	wrist_dev_r	arm_flex_l	arm_add_l	arm_rot_l	elbow_flex_l	pro_sup_l	wrist_flex_l	wrist_dev_l
      4.10000000	      7.88223647	     -1.77659252	    -20.47382707	      0.05037229	      1.31545239	      0.02158307	     61.59745408	    -16.59550904	      0.22771440	     78.71373742	      1.37381388	     -6.37208456	    -29.53461839	      0.00000000	     27.98436997	    -18.52112494	     -9.32518356	     63.20567977	      1.10314722	    -13.92878228	     -8.22947913	      0.00000000	    -61.74064108	     -4.53148524	      1.44938400	     53.82163988	    -16.21453187	    -18.14162368	     50.47445794	     87.73582762	      0.00000000	      0.00000000	     62.70223129	     -2.53968439	    -17.60672662	     51.67266686	     87.62635860	      0.00000000	      0.00000000
      4.11700000	      8.34397025	     -1.53849195	    -19.95825015	      0.05021909	      1.31626422	      0.02172592	     58.32117496	    -17.52171791	     -1.33411527	     74.21212795	      1.29524598	     -6.91002368	    -29.18051934	      0.00000000	     29.86716937	    -18.34598852	     -7.29824301	     67.71654405	      1.18187665	    -13.68106091	     -8.79315327	      0.00000000	    -62.09197067	     -4.36288395	      0.90869977	     53.62275225	    -16.00638076	    -18.52098623	     50.61993963	     87.79876209	      0.00000000	      0.00000000	     62.78252639	     -2.57583868	    -17.53851399	     51.45611407	     87.68719676	      0.00000000	      0.00000000
      4.13300000	      8.82472313	     -1.26083013	    -19.28153755	      0.05009963	      1.31697694	      0.02167836	     54.56742196	    -18.59796467	     -3.26795130	     69.33759855	      1.21016939	     -7.85777253	    -28.58598981	      0.00000000	     31.95967548	    -18.04357091	     -5.24636005	     72.30384628	      1.26194018	    -13.38373255	     -9.23127788	      0.00000000	    -62.38947938	     -4.11515476	      0.28659888	     53.32570333	    -15.79198579	    -18.95352533	     50.71934045	     87.81436323	      0.00000000	      0.00000000	     62.84441053	     -2.63741266	    -17.32845454	     51.14675186	     87.66890137	      0.00000000	      0.00000000
      4.15000000	      9.22844065	     -0.93633023	    -18.48789849	      0.05000039	      1.31752622	      0.02147978	     50.62192640	    -19.60677844	     -5.44243188	     64.49494271	      1.12564910	     -8.98133274	    -27.95428049	      0.00000000	     34.32399945	    -17.65014440	     -3.20920353	     76.73808855	      1.33933231	    -13.10415142	     -9.46094485	      0.00000000	    -62.58316593	     -3.80296526	     -0.38292521	     52.99654544	    -15.55579454	    -19.47550179	     50.76766018	     87.87135575	      0.00000000	      0.00000000	     62.88388896	     -2.66886310	    -17.05272918	     50.82544433	     87.69950145	      0.00000000	      0.00000000
      4.16700000	      9.54668553	     -0.53013019	    -17.51711543	      0.04983341	      1.31787871	      0.02107986	     46.46889728	    -20.57622377	     -7.96479844	     59.75716443	      1.04295927	    -10.17855328	    -27.41770746	      0.00000000	     37.03126663	    -17.15238074	     -1.17340322	     81.01717489	      1.41401645	    -12.84616232	     -9.39607761	      0.00000000	    -62.67194305	     -3.41992491	     -1.16575952	     52.66552880	    -15.33892820	    -20.08356478	     50.73278357	     87.92326721	      0.00000000	      0.00000000	     62.90716752	     -2.65523739	    -16.73673923	     50.54695171	     87.69591832	      0.00000000	      0.00000000
      4.18300000	      9.78800063	     -0.06956476	    -16.43609018	      0.04973062	      1.31800014	      0.02055496	     42.10531830	    -21.41684720	    -10.80270086	     54.96870891	      0.95938496	    -11.61878118	    -26.83165478	      0.00000000	     40.02832355	    -16.53432923	      0.83170950	     85.15815240	      1.48629014	    -12.56919027	     -9.21801951	      0.00000000	    -62.63579199	     -2.98619846	     -2.00462670	     52.28863115	    -15.09278871	    -20.78498841	     50.62522137	     87.97735998	      0.00000000	      0.00000000	     62.89905722	     -2.62588349	    -16.33897208	     50.22264580	     87.69547272	      0.00000000	      0.00000000
      4.20000000	      9.94114378	      0.46678737	    -15.38597109	      0.04968083	      1.31787830	      0.02002683	     37.95197244	    -22.08106339	    -13.59033171	     50.39330621	      0.87952911	    -13.54645461	    -26.22037526	      0.00000000	     43.18788422	    -15.80838539	      2.54916378	     88.88812423	      1.55139043	    -12.32561768	     -8.90557210	      0.00000000	    -62.49504036	     -2.58287907	     -2.87081408	     51.97740477	    -14.87142577	    -21.44871936	     50.44705335	     88.03633085	      0.00000000	      0.00000000	     62.90436454	     -2.58745680	    -15.96924493	     49.82920756	     87.69526029	      0.00000000	      0.00000000
